<svg width="21" height="21" viewBox="0 0 21 21" fill="none" xmlns="http://www.w3.org/2000/svg">
<g clip-path="url(#clip0_181_425)">
<path d="M7.59192 8.85724H12.6532" stroke="#CE0C0C" stroke-width="1.26532" stroke-linecap="round" stroke-linejoin="round"/>
<path d="M7.59192 11.3879H12.6532" stroke="#CE0C0C" stroke-width="1.26532" stroke-linecap="round" stroke-linejoin="round"/>
<path d="M6.32108 16.6952C7.9158 17.6182 9.79176 17.9297 11.5992 17.5716C13.4066 17.2136 15.0222 16.2105 16.1446 14.7493C17.2671 13.2881 17.8198 11.4685 17.6998 9.62989C17.5797 7.79125 16.7952 6.05901 15.4923 4.75612C14.1894 3.45324 12.4571 2.66865 10.6185 2.54863C8.77987 2.4286 6.96033 2.98134 5.49913 4.10379C4.03792 5.22623 3.03479 6.84177 2.67676 8.64921C2.31873 10.4566 2.63023 12.3326 3.55319 13.9273L2.56387 16.8811C2.52669 16.9925 2.5213 17.1121 2.54829 17.2265C2.57528 17.3409 2.63358 17.4455 2.71667 17.5286C2.79976 17.6116 2.90435 17.67 3.01872 17.6969C3.13309 17.7239 3.25271 17.7185 3.36418 17.6814L6.32108 16.6952Z" stroke="#CE0C0C" stroke-width="1.26532" stroke-linecap="round" stroke-linejoin="round"/>
</g>
<defs>
<clipPath id="clip0_181_425">
<rect width="20.2451" height="20.2451" fill="white"/>
</clipPath>
</defs>
</svg>
