<svg width="21" height="21" viewBox="0 0 21 21" fill="none" xmlns="http://www.w3.org/2000/svg">
<g clip-path="url(#clip0_181_424)">
<path d="M2.54944 8.28528H6.37341V16.5706H2.54944C2.38041 16.5706 2.2183 16.5034 2.09878 16.3839C1.97926 16.2644 1.91211 16.1023 1.91211 15.9332V8.92261C1.91211 8.75358 1.97926 8.59147 2.09878 8.47195C2.2183 8.35243 2.38041 8.28528 2.54944 8.28528Z" stroke="#CE0C0C" stroke-width="1.27466" stroke-linecap="round" stroke-linejoin="round"/>
<path d="M6.37329 8.28528L9.55994 1.91199C10.2361 1.91199 10.8845 2.18058 11.3626 2.65866C11.8407 3.13675 12.1093 3.78518 12.1093 4.4613V6.37329H17.2079C17.3887 6.37334 17.5674 6.41186 17.7322 6.48629C17.897 6.56072 18.0441 6.66935 18.1636 6.80498C18.2832 6.9406 18.3726 7.10012 18.4258 7.27293C18.479 7.44574 18.4948 7.62789 18.4722 7.80728L17.5162 15.4552C17.4774 15.7632 17.3275 16.0464 17.0948 16.2518C16.862 16.4571 16.5623 16.5705 16.2519 16.5706H6.37329" stroke="#CE0C0C" stroke-width="1.27466" stroke-linecap="round" stroke-linejoin="round"/>
</g>
<defs>
<clipPath id="clip0_181_424">
<rect width="20.3945" height="20.3945" fill="white"/>
</clipPath>
</defs>
</svg>
