<svg width="21" height="21" viewBox="0 0 21 21" fill="none" xmlns="http://www.w3.org/2000/svg">
<g clip-path="url(#clip0_181_427)">
<path d="M18.0491 3.35749C18.0798 3.24857 18.0809 3.13344 18.0523 3.02394C18.0238 2.91445 17.9665 2.81456 17.8865 2.73454C17.8065 2.65452 17.7066 2.59727 17.5971 2.56869C17.4876 2.5401 17.3725 2.54122 17.2635 2.57191L1.98174 7.2058C1.85698 7.24101 1.74593 7.31346 1.66345 7.41347C1.58097 7.51349 1.53098 7.63629 1.52016 7.76548C1.50935 7.89466 1.53822 8.02407 1.60292 8.13641C1.66763 8.24874 1.76508 8.33865 1.88225 8.39412L8.69698 11.6208C8.82965 11.6837 8.9365 11.7906 8.99943 11.9233L12.2269 18.7372C12.2824 18.8544 12.3723 18.9518 12.4846 19.0165C12.597 19.0812 12.7264 19.1101 12.8556 19.0993C12.9847 19.0885 13.1075 19.0385 13.2076 18.956C13.3076 18.8735 13.38 18.7625 13.4152 18.6377L18.0491 3.35749Z" stroke="#CE0C0C" stroke-width="1.4" stroke-linecap="round" stroke-linejoin="round"/>
<path d="M8.87451 11.7465L12.9799 7.64114" stroke="#CE0C0C" stroke-width="1.4" stroke-linecap="round" stroke-linejoin="round"/>
</g>
<defs>
<clipPath id="clip0_181_427">
<rect width="20.3757" height="20.3757" fill="white" transform="translate(0.245117)"/>
</clipPath>
</defs>
</svg>
